<svg width="20" height="21" viewBox="0 0 20 21" fill="none" xmlns="http://www.w3.org/2000/svg">
<path d="M1.57108 14.1738C1.06255 14.3667 0.802403 14.9382 1.0444 15.4253C1.90764 17.1628 3.26156 18.6187 4.94814 19.6059C6.91915 20.7597 9.2257 21.2041 11.4843 20.8651C13.7428 20.5261 15.8173 19.4242 17.3628 17.7426C18.9082 16.0611 19.8315 13.9012 19.9791 11.6221C20.1267 9.34298 19.4897 7.08203 18.174 5.21519C16.8584 3.34834 14.9434 1.9881 12.7474 1.36064C10.5514 0.733173 8.20678 0.876304 6.10343 1.76623C4.3036 2.52774 2.77321 3.7968 1.69308 5.40848C1.39028 5.86029 1.57455 6.46053 2.05395 6.71745C2.53335 6.97436 3.12554 6.7896 3.43917 6.34523C4.29907 5.12687 5.4856 4.16631 6.87091 3.58018C8.55998 2.86554 10.4428 2.7506 12.2062 3.25448C13.9697 3.75835 15.5075 4.85068 16.5641 6.34982C17.6206 7.84897 18.1321 9.66459 18.0136 11.4948C17.8951 13.325 17.1536 15.0595 15.9126 16.4098C14.6715 17.7602 13.0056 18.645 11.1919 18.9172C9.37821 19.1895 7.52596 18.8326 5.94318 17.9061C4.64503 17.1462 3.5923 16.0406 2.89672 14.7215C2.64302 14.2404 2.07961 13.9808 1.57108 14.1738Z" fill="white"/>
<path d="M1.25 10.1932C0.817777 10.1932 0.467391 10.5436 0.467391 10.9758C0.467391 11.4081 0.817777 11.7584 1.25 11.7584L1.25 10.1932ZM14.3034 11.5292C14.609 11.2236 14.609 10.7281 14.3034 10.4224L9.3229 5.44195C9.01727 5.13632 8.52175 5.13632 8.21612 5.44195C7.91049 5.74758 7.91049 6.2431 8.21612 6.54873L12.6432 10.9758L8.21612 15.4029C7.91049 15.7086 7.91049 16.2041 8.21612 16.5097C8.52175 16.8153 9.01727 16.8153 9.3229 16.5097L14.3034 11.5292ZM1.25 11.7584L13.75 11.7584V10.1932L1.25 10.1932L1.25 11.7584Z" fill="white"/>
</svg>
